<?xml version="1.0" encoding="utf-8"?>
<!-- Generator: Adobe Illustrator 25.0.1, SVG Export Plug-In . SVG Version: 6.00 Build 0)  -->
<svg version="1.1" id="Layer_1" xmlns="http://www.w3.org/2000/svg" xmlns:xlink="http://www.w3.org/1999/xlink" x="0px" y="0px"
	 viewBox="0 0 1024 1024" style="enable-background:new 0 0 1024 1024;" xml:space="preserve">
<style type="text/css">
	.st0{fill:#FEFEFE;}
	.st1{fill:#8AB55B;}
	.st2{fill:#9EBD4B;}
	.st3{fill:#598726;}
	.st4{fill:#19360A;}
	.st5{fill:#356118;}
</style>
<g>
	<path class="st0" d="M512.13,1057.42c-169.17,0-338.34-0.02-507.51,0.11c-4.02,0-4.62-0.95-4.62-4.73
		c0.11-308.02,0.11-616.04,0-924.06c0-3.77,0.58-4.74,4.61-4.74c338.18,0.12,676.36,0.12,1014.54,0c4.22,0,4.85,1.06,4.85,4.98
		c-0.1,308.02-0.1,616.04-0.01,924.06c0,3.49-0.6,4.49-4.35,4.49C850.47,1057.4,681.3,1057.42,512.13,1057.42z M563.91,872.69
		c2.64,0.34,5.03,0.38,4.08-3.48c0,0-0.14-0.11-0.14-0.11c1.3,0,2.59,0.01,3.89,0.01c3.84,0.17,7.67,0.12,11.47-0.53
		c2.98,0.81,3.87-0.78,3.88-3.37c2.56-0.12,5.12-0.25,7.68-0.37c2.97,0.73,4.02-0.71,3.94-3.45c2.53-0.16,5.07-0.33,7.6-0.49
		c3.01,0.82,3.83-0.83,3.83-3.39c1.3-0.09,2.59-0.18,3.89-0.27c2.9,0.61,4.23-0.56,4-3.51c2.34-0.15,6.44,0.29,6.72-0.54
		c1.59-4.82,5.76-2.5,8.52-3.74c2.96,0.68,3.83-0.91,3.81-3.48c1.3-0.1,2.6-0.21,3.89-0.31c2.99,0.7,3.95-0.82,3.86-3.51
		c1.28-0.11,2.56-0.22,3.84-0.34c2.99,0.7,3.95-0.82,3.85-3.51c1.28-0.11,2.56-0.22,3.84-0.34c3,0.71,3.93-0.85,3.84-3.51
		c1.28-0.13,2.57-0.25,3.85-0.38c2.96,0.67,3.84-0.9,3.76-3.5c4.55,0.36,6.66-5.43,11.43-4.53c0.02,0,0.15-0.29,0.14-0.43
		c-0.27-3.08,2.41-2.25,3.92-2.96c2.95,0.61,4.14-0.7,3.92-3.56c1.26-0.13,2.51-0.26,3.77-0.4c2.96,0.64,3.86-0.9,3.72-3.52
		c1.34-0.37,3.68,0.9,3.86-1.28c0.25-2.96,2.54-2.05,3.97-2.77c3.03,0.68,4.07-0.78,3.86-3.58c1.22-0.15,3.35,0.51,3.5-0.61
		c0.52-3.8,3.33-3.06,5.63-3.35c1.17-0.15,1.64-0.79,2.44-1.6c2.3-2.32,3.98-5.58,7.66-6.22c3.03,0.67,4.07-0.79,3.86-3.59
		c1.34-0.33,3.65,0.91,3.78-1.33c0.17-2.98,2.54-2.02,3.9-2.82c3.01,0.65,3.96-0.85,3.76-3.57c1.7-0.19,2.82-0.34,4.34-2.12
		c1.82-2.13,3.55-5.62,7.29-5.83c3.01,0.63,3.98-0.85,3.72-3.59c4.19,0.35,5.06-3.98,7.87-5.65c2.8-1.66,4.23-5.17,7.65-6.17
		c2.96,0.58,3.87-0.94,3.66-3.59l0.14-0.1c2.93,0.47,4.23-0.73,3.83-3.7c4.11,0.82,5.3-3.34,7.37-5.14
		c3.74-3.26,7.34-6.94,10.69-10.63c1.83-2.02,5.9-3.33,5.08-7.41c2.75,0.27,4.22-0.71,3.6-3.71c0.97-1-0.31-3.36,1.63-3.51
		c2.98-0.23,2.49-2.24,2.56-4.03c0.1-2.67-0.04-5.37,0.18-8.03c0.28-3.3-1.27-4.18-4.19-3.66c-0.4-5.74-4.78-2.96-7.59-3.55
		c-19.24-0.49-38.49-0.69-57.73,0.15c-2.65-0.03-5.32,0.13-7.95-0.13c-2.79-0.28-3.48,1.22-3.63,3.49
		c-3.81-0.03-7.61-0.07-11.42-0.1c0,0,0,0,0,0c0.05-0.64-0.12-1.71,0.17-1.85c3.67-1.74,3.62-5.14,3.97-8.4
		c0.03-0.33,0.63-0.84,0.97-0.85c3.09-0.04,2.25-2.46,2.6-4.16c0.22-1.07,0.08-2.68,0.73-3.13c3.85-2.67,6.98-5.65,6.97-10.77
		c0-0.9,0.43-1.59,1.39-1.6c2.13-0.03,2.2-1.52,2.13-2.99c-0.23-4.57,5.82-6.73,4.5-11.72c-0.03-0.11,0.74-0.61,1.14-0.62
		c2.16-0.04,2.16-1.59,2.09-3.03c-0.24-4.58,5.79-6.77,4.45-11.75c-0.03-0.11,0.45-0.51,0.69-0.51c3.09,0.04,2.32-2.43,2.69-4.13
		c0.23-1.08,0.11-3.04,0.53-3.15c4.82-1.25,2.8-5.28,3.53-8.16c0.27-1.06,0.35-3.03,0.69-3.07c3.92-0.46,2.83-3.5,3.21-5.78
		c0.15-0.89-0.18-2.26,1.09-2.32c3.09-0.14,2.28-2.46,2.59-4.19c0.19-1.09,0.15-3.05,0.54-3.14c4.03-0.91,2.08-5.29,3.57-6.52
		c4.15-3.45,3.35-7.83,3.88-12.06c0.09-0.73,0.64-1.13,1.31-1.15c2.5-0.07,2.02-1.94,2.16-3.46c0.12-1.26-0.03-3.44,0.52-3.64
		c4.86-1.76,2.82-5.97,3.56-9.17c0.21-0.91,0.35-2.58,0.65-2.61c4.12-0.38,2.6-3.64,3.12-5.83c0.18-0.75,0.32-2.08,0.63-2.13
		c4.25-0.61,2.64-4,3.09-6.35c0.3-1.55-0.08-4.3,0.59-4.55c4.93-1.83,2.69-6.05,3.46-9.21c0.22-0.91,0.28-2.58,0.61-2.63
		c4.59-0.7,2.57-4.33,3.11-6.77c0.34-1.54,0.14-4.33,0.73-4.49c4.49-1.18,2.65-4.73,3.14-7.36c0.26-1.4,0.02-3.88,0.61-4.07
		c4.92-1.65,2.53-5.79,3.31-8.8c0.27-1.06,0.23-3.03,0.62-3.11c4.43-0.86,2.55-4.41,3.14-6.87c0.79-3.31-1.73-7.8,3.45-9.62
		c0.33-0.12,0.15-1.51,0.33-2.27c1.09-4.52-1.07-9.24,3.33-13.8c2.56-2.66,1.41-8.62,3.68-13.28c3.26-6.69-0.2-14.87,3.63-22.76
		c2.97-6.12,0.71-14.77,0.76-22.3c0-0.47-0.06-1.27-0.29-1.35c-4.64-1.59-2.63-5.73-3.42-8.77c-0.33-1.26,0.43-3.17-1.87-3.2
		c-4.97-0.07-9.98,0.29-14.89-0.23c-5.27-0.56-7.98,5.65-13.27,4.42c-0.7,3.95-3.89,3.21-6.57,3.53c-0.55,0.07-1.51,0.52-1.51,0.81
		c-0.05,3.66-3.06,2.43-4.92,3.05c-0.97,0.32-1.89,0.12-2.84,1.19c-2.59,2.91-4.9,6.48-9.55,6.48c-0.6,0-1.48,0.14-1.74,0.54
		c-2.53,3.86-5.37,7.2-10.52,7.24c-0.72,0.01-1.2,0.44-1.28,1.15c-0.33,3.22-5.18,2.51-5.21,5.98c-3.47-1.11-2.4,4.22-4.95,3.69
		c-4.56-0.94-7.82,3.39-8.6,5.03c-2.89,6.08-10.03,5.74-13.69,10.47c-0.83,1.08-1.76,3.21-3.54,4.04c-2.96,1.39-4.54,4.75-7.05,6.17
		c-2.69,1.52-3.26,5.46-7.01,5.37c-3.94-0.09-5.33,3.71-7.64,5.8c-1.86,1.7-3.8,4.08-5.64,5.45c-3.61,2.7-6.88,6.02-9.67,9.11
		c-2.94,3.26-7.58,5.23-8.98,9.88c-3.67-1.07-2.41,4.03-5.29,4.15c-4.64,0.19-6.22,4.68-9.36,6.77c-2.36,1.58-3.09,4.38-5.93,5.57
		c-1.84,0.77-3.89,3.08-5.01,4.9c-2.43,3.97-6.4,6.27-9.26,9.77c-3.08,3.78-6.81,7.38-10.6,10.48c-2.16,1.77-3.22,6.24-7.53,4.99
		c-0.09-2.54-0.19-5.08-0.28-7.62c-0.66-2.82,2.29-7.31-3.57-7.75c-0.12-3.82-0.23-7.65-0.35-11.47c0.66-2.87-0.4-4.31-3.43-4.11
		c-0.08-4.13-0.13-8.27-0.25-12.4c-0.03-1.04,0.33-2.57-1.17-2.74c-2.7-0.31-2.16-2.29-2.3-3.91c-0.22-2.53-0.33-5.07-0.48-7.61
		c-0.67-2.82,2.29-7.31-3.58-7.72c-0.1-2.55-0.2-5.1-0.31-7.65c-0.09-2.47-0.28-4.94-0.24-7.41c0.04-2.42-1.1-3.57-3.42-3.76
		c-0.09-1.4-0.18-2.8-0.27-4.2c0.73-2.94-0.67-4.05-3.44-3.97c-0.11-2.53-0.22-5.05-0.33-7.58c-0.11-2.54-0.38-5.09-0.3-7.62
		c0.07-2.48-1.29-3.26-3.37-3.48c-0.1-1.38,0.57-3.73-0.57-3.95c-4.47-0.89-2.6-4.28-3.07-6.69c-0.33-1.69-0.39-3.42-0.56-5.14
		c0.82-2.99-0.81-3.84-3.39-3.85c0.01-2.53,0.89-6.66-0.75-7.23c-4.25-1.47-2.53-4.51-3.03-6.97c-0.28-1.4,0.01-3.94-0.52-4.1
		c-4.86-1.46-2.6-5.74-3.73-8.62c0.68-2.94-0.74-4.02-3.48-3.93c-0.14-2.34,0.35-6.44-0.51-6.74c-4.7-1.67-2.57-5.75-3.74-8.55
		c0.66-2.92-0.87-3.87-3.48-3.83c-0.09-1.29-0.18-2.57-0.27-3.86c0.63-2.92-0.61-4.19-3.52-3.97c0.02-2.48,0.77-6.43-1-7
		c-3.43-1.1-2.58-3.37-3.02-5.43c-0.21-1,0.32-2.61-1.23-2.63c-3.05-0.04-2.06-2.58-2.82-4.03c0.67-2.99-0.83-3.96-3.54-3.82
		c-0.3-1.35,0.92-3.66-1.26-3.83c-2.94-0.22-2.1-2.48-2.83-3.9c0.61-2.99-0.75-4.11-3.62-3.81c-0.31-3.34-4.43-7.42-7.77-7.71
		c0.18-2.71-0.74-4.24-3.77-3.53c-1.29-0.46-2.58-0.42-3.87-0.04c-3.05-0.75-4.06,0.74-3.87,3.53c-3.15,0.22-7.41,4.6-7.63,7.84
		c-2.63-0.14-4.17,0.75-3.52,3.72c-0.13,1.26-0.26,2.51-0.4,3.77c-2.87-0.22-4.18,0.96-3.55,3.91c-0.1,1.25-0.2,2.5-0.3,3.74
		c-2.88-0.21-4.18,1-3.53,3.94c-0.09,1.3-0.18,2.59-0.27,3.89c-2.58-0.02-4.18,0.85-3.45,3.82c-0.64,2.47-0.62,4.97-0.48,7.49
		c-2.98-0.23-4.1,1.16-3.49,4.03c-0.31,2.34,0.03,6.29-1.06,6.73c-4.54,1.85-2.56,5.47-3.18,8.36c-0.26,1.22-0.29,3.44-0.73,3.52
		c-4.2,0.75-2.49,4.06-3.06,6.37c-0.85,3.43,1.93,8.1-3.44,10.06c-0.34,0.12-0.3,1.48-0.32,2.26c-0.07,2.86-0.1,5.72-0.14,8.58
		c-3.04-0.22-4.06,1.27-3.46,4.11c-0.13,3.76-0.26,7.52-0.39,11.28c-3.04-0.22-4.06,1.26-3.46,4.1c-0.12,3.8-0.23,7.59-0.35,11.39
		c-2.79-0.06-4.16,1.07-3.38,4.01c-0.62,3.83-0.56,7.68-0.41,11.54c-5.69,0.48-2.95,4.84-3.53,7.67c-0.11,3.85-0.21,7.7-0.32,11.55
		c-5.75,0.51-2.86,4.87-3.44,7.69c-0.15,5.09-0.3,10.17-0.45,15.26c-5.91,0.53-2.8,4.97-3.39,7.81c-0.23,6.37-0.42,12.73-0.73,19.09
		c-0.06,1.29,0.73,3.24-1.25,3.64c-2.31,0.47-2.08,2.02-2.1,3.59c-0.08,5.26-0.14,10.52-0.21,15.77c-1.26,0.01-2.52,0.03-3.77,0.04
		c0.14-1.1,0.56-2.89-0.28-3.14c-4.84-1.44-7.39-5.95-10.29-9.06c-4.21-4.51-8.6-9.18-12.96-13.42c-4.49-4.37-8.44-9.54-13.87-13.16
		c-1.59-1.06-3.73-3.01-4.87-5.07c-1.34-2.43-3.68-4.24-5.53-5.57c-3.7-2.67-6.09-6.5-9.77-9.2c-3.22-2.36-4.96-6.72-9.81-6.88
		c-0.89-0.03-1.23-0.58-1.66-1.37c-2.17-4.01-6.41-6.09-9.24-9.63c-1.87-2.34-4.3-5.03-6.8-6.39c-2.72-1.49-3.28-5.45-7.07-5.35
		c-3.87,0.11-5.39-3.64-7.63-5.75c-1.84-1.73-4.93-2.61-5.48-5.66c-3.45,1.1-1.94-4.43-4.93-3.74c-4.55,1.06-6.32-3.32-8.63-5.28
		c-3.25-2.76-5.39-6.64-10.32-6.8c-0.64-0.02-1.02-0.4-1.46-0.97c-2.41-3.16-4.65-6.64-9.32-6.72c-0.77-0.01-1.52-0.02-2.09-0.82
		c-2.54-3.54-5.17-7-10.23-6.84c-0.42,0.01-1.22-0.31-1.23-0.51c-0.2-3.96-3.39-2.89-5.63-3.38c-0.76-0.17-1.99,0-2.02-0.85
		c-0.12-3.68-3.02-2.43-4.91-2.95c-0.9-0.24-2.57-0.36-2.6-0.67c-0.42-3.98-3.6-2.73-5.82-3.16c-1.12-0.22-2.33-0.08-2.43-1.65
		c-0.14-2.21-1.81-1.86-3.19-1.87c-5.13-0.07-10.26-0.01-15.38-0.14c-3.39-0.09-4.79,1.33-4.75,4.75
		c0.17,15.21,0.19,30.42,0.32,45.62c0.01,1.15-0.54,2.93,1.2,3.23c2.66,0.46,2.1,2.39,2.18,4.03c0.15,2.88,0.17,5.76,0.33,8.64
		c0.06,1.03-0.44,2.64,1.03,2.84c3.28,0.45,2.32,2.94,2.49,4.78c0.32,3.33-0.82,8.61,0.83,9.67c4.87,3.11,2.33,7.31,3.19,10.91
		c0.4,1.67-0.43,4.58,0.9,4.91c4.21,1.06,2.48,4.16,2.89,6.5c0.28,1.56-0.19,4.27,0.52,4.59c5.02,2.24,2.68,6.72,3.53,10.18
		c0.18,0.74,0.37,2.05,0.68,2.09c4.06,0.5,2.57,3.7,2.95,5.93c0.3,1.72-0.12,4.75,0.59,5.02c4.95,1.86,2.62,6.1,3.48,9.24
		c0.28,1-0.4,2.67,1.02,2.87c3.54,0.5,2.3,3.2,2.65,5.15c0.38,2.11-0.77,5.41,1.31,6.09c3.03,0.99,2.26,2.98,2.6,4.82
		c0.17,0.93,0,2.61,0.37,2.72c5.04,1.56,2.77,5.93,3.63,9.05c0.28,1-0.39,2.7,1.04,2.86c3.28,0.37,2.31,2.85,2.67,4.68
		c0.18,0.93,0.05,2.61,0.41,2.71c4.96,1.37,2.73,5.61,3.57,8.58c1.06,3.75,5.03,6.35,4.25,10.82c3.93,0.49,3.13,3.57,3.34,6.1
		c0.08,0.95,0.02,2.13,1.31,2.16c2.84,0.08,2.13,2.22,2.36,3.81c0.16,1.1-0.02,3.05,0.42,3.19c5.23,1.7,2.15,6.68,3.93,9.42
		c2.04,3.13,4.02,6.03,4.16,9.85c0,0.09,0.23,0.24,0.36,0.25c3.59,0.1,2.42,3.01,2.91,4.93c0.23,0.91,0.35,2.59,0.64,2.62
		c4.05,0.37,2.75,3.57,3.2,5.8c0.15,0.76-0.05,2.02,0.78,2.05c3.55,0.15,2.64,2.88,3.05,4.87c0.19,0.92,0.31,2.6,0.6,2.63
		c3.88,0.41,2.9,3.47,3.28,5.75c0.13,0.77-0.03,2.04,0.74,2.08c3.89,0.2,2.58,3.26,3.12,5.3c0.2,0.75,0.31,2.15,0.56,2.17
		c3.84,0.36,2.97,3.4,3.36,5.69c0.16,0.91,0.27,1.59,1.13,2.36c2.92,2.61,6.49,4.92,6.35,9.61c-0.02,0.61,0.16,1.71,0.41,1.76
		c5.22,1.05,2.73,5.09,3.16,7.98c-2.44,0.02-4.88,0.04-7.33,0.06c-0.09-2.31-0.78-3.8-3.62-3.54c-2.66,0.24-5.35,0.03-8.03,0.02
		c-12.11-0.12-24.21-0.38-36.32-0.32c-9.7,0.05-19.43-0.5-29.11,0.5c-3.02-0.82-3.83,0.82-3.79,3.4c-2.65-0.39-4.36,0.14-3.97,3.43
		c0.32,2.68,0.29,5.4,0.42,8.1c-0.67,2.98,0.89,3.84,3.51,3.71c-0.83,4.27,3.3,5.73,5.33,7.7c3.17,3.06,6.42,6.29,9.39,9.43
		c3.02,3.19,6.35,6.29,9.27,9.67c3.23,3.76,7.18,7.19,10.98,10.48c2.1,1.82,3.36,5.92,7.46,5.11c-0.27,2.75,0.72,4.21,3.72,3.61
		c1.37,0.86,4.12,0.04,3.74,3.05c3.42,0.35,3.63,5.81,7.84,4.91c-0.31,2.86,0.83,4.21,3.81,3.63c1.19,0.9,2.6,0.88,3.94,2.29
		c2.02,2.14,3.5,6.12,7.7,5.6c-0.2,2.72,0.76,4.22,3.76,3.58c1.02,1.02,3.48-0.4,3.62,1.95c0.19,3.1,2.47,1.94,4.08,2.2
		c-0.21,2.79,0.81,4.27,3.85,3.6c1.06,0.95,3.47-0.46,3.63,1.9c0.2,3.09,2.47,1.93,4.07,2.19c-0.21,2.79,0.81,4.27,3.85,3.59
		c1.05,0.87,3.36-0.36,3.51,1.46c0.26,3.21,2.36,2.59,4.29,2.6c-0.07,2.58,0.79,4.17,3.76,3.51c3.91,1.04,6.25,5.59,10.95,4.9
		c0.08-0.01,0.34,0.52,0.35,0.81c0.07,3.19,2.47,2.14,4.19,2.32c-0.07,2.58,0.78,4.17,3.75,3.5c1.27,0.13,2.53,0.26,3.8,0.4
		c-0.17,2.79,0.87,4.26,3.9,3.55c3.91,0.93,6.24,5.58,10.95,4.61c0.61,4,3.83,3.19,6.45,3.55c0.55,0.08,1.51,0.49,1.52,0.78
		c0.11,3.59,3,2.46,4.9,2.96c0.9,0.24,2.53,0.23,2.62,0.61c1.17,5.13,5.27,2.49,8.08,3.18c-0.22,2.92,1.05,4.14,3.97,3.52
		c1.27,0.1,2.55,0.19,3.82,0.29c-0.09,2.7,0.9,4.2,3.88,3.49c2.32,0.32,6.28,0.03,6.68,1.08c1.86,4.9,5.67,2.57,8.66,3.12
		c-0.08,2.72,0.92,4.2,3.91,3.46c2.53,0.14,5.05,0.27,7.58,0.41c-0.1,2.77,1.04,4.14,3.96,3.46c2.53,0.12,5.06,0.25,7.6,0.37
		c-0.03,2.7,0.96,4.22,3.96,3.4c2.57,0.11,5.15,0.22,7.72,0.33c1.29,0,2.58,0.01,3.88,0.01l-0.1,0.09c0.27,6.13,4.88,3.11,7.79,3.69
		c1.28-0.01,2.56-0.02,3.84-0.03c1.26,0.09,2.52,0.17,3.77,0.26c-0.08,2.43,0.74,3.8,3.53,3.6c2.68-0.19,5.39-0.01,8.09,0.01
		c5.11,0,10.21,0,15.32,0c2.7-0.02,5.41-0.19,8.1-0.01c2.75,0.18,3.69-1.09,3.55-3.58c1.25-0.08,2.5-0.16,3.75-0.24
		c1.29-0.01,2.57-0.01,3.86-0.02C561.36,872.72,562.63,872.7,563.91,872.69z"/>
	<path class="st1" d="M348.17,707.44c-0.43-2.88,2.06-6.92-3.16-7.98c-0.25-0.05-0.43-1.16-0.41-1.76c0.13-4.69-3.44-7-6.35-9.61
		c-0.86-0.77-0.98-1.45-1.13-2.36c-0.4-2.29,0.47-5.33-3.36-5.69c-0.25-0.02-0.36-1.42-0.56-2.17c-0.54-2.04,0.77-5.11-3.12-5.3
		c-0.77-0.04-0.61-1.31-0.74-2.08c-0.38-2.28,0.6-5.34-3.28-5.75c-0.29-0.03-0.41-1.71-0.6-2.63c-0.42-1.98,0.5-4.72-3.05-4.87
		c-0.83-0.03-0.63-1.29-0.78-2.05c-0.45-2.23,0.85-5.43-3.2-5.8c-0.29-0.03-0.41-1.71-0.64-2.62c-0.49-1.92,0.67-4.82-2.91-4.93
		c-0.13,0-0.36-0.16-0.36-0.25c-0.14-3.83-2.12-6.73-4.16-9.85c-1.79-2.74,1.3-7.72-3.93-9.42c-0.44-0.14-0.26-2.09-0.42-3.19
		c-0.24-1.59,0.47-3.73-2.36-3.81c-1.29-0.04-1.24-1.21-1.31-2.16c-0.21-2.52,0.6-5.61-3.34-6.1c0.77-4.47-3.19-7.07-4.25-10.82
		c-0.84-2.97,1.39-7.21-3.57-8.58c-0.36-0.1-0.22-1.78-0.41-2.71c-0.36-1.83,0.61-4.31-2.67-4.68c-1.43-0.16-0.76-1.86-1.04-2.86
		c-0.86-3.13,1.41-7.49-3.63-9.05c-0.36-0.11-0.2-1.79-0.37-2.72c-0.33-1.84,0.43-3.82-2.6-4.82c-2.08-0.68-0.93-3.98-1.31-6.09
		c-0.35-1.95,0.89-4.65-2.65-5.15c-1.42-0.2-0.75-1.87-1.02-2.87c-0.87-3.14,1.47-7.38-3.48-9.24c-0.72-0.27-0.3-3.3-0.59-5.02
		c-0.38-2.22,1.11-5.42-2.95-5.93c-0.31-0.04-0.5-1.36-0.68-2.09c-0.85-3.46,1.48-7.94-3.53-10.18c-0.71-0.32-0.24-3.02-0.52-4.59
		c-0.41-2.34,1.31-5.45-2.89-6.5c-1.32-0.33-0.5-3.24-0.9-4.91c-0.86-3.6,1.68-7.81-3.19-10.91c-1.65-1.05-0.51-6.34-0.83-9.67
		c-0.18-1.84,0.79-4.33-2.49-4.78c-1.47-0.2-0.97-1.81-1.03-2.84c-0.16-2.88-0.18-5.76-0.33-8.64c-0.09-1.64,0.48-3.57-2.18-4.03
		c-1.75-0.3-1.19-2.08-1.2-3.23c-0.13-15.21-0.15-30.42-0.32-45.62c-0.04-3.42,1.36-4.84,4.75-4.75c5.13,0.14,10.26,0.08,15.38,0.14
		c1.37,0.02,3.04-0.33,3.19,1.87c0.1,1.57,1.32,1.43,2.43,1.65c2.22,0.43,5.4-0.82,5.82,3.16c0.03,0.31,1.7,0.42,2.6,0.67
		c1.9,0.52,4.79-0.73,4.91,2.95c0.03,0.85,1.26,0.68,2.02,0.85c2.23,0.49,5.43-0.58,5.63,3.38c0.01,0.2,0.81,0.53,1.23,0.51
		c5.06-0.16,7.68,3.3,10.23,6.84c0.57,0.8,1.32,0.8,2.09,0.82c4.67,0.08,6.91,3.56,9.32,6.72c0.44,0.57,0.82,0.95,1.46,0.97
		c4.93,0.16,7.07,4.04,10.32,6.8c2.31,1.96,4.08,6.34,8.63,5.28c2.99-0.69,1.48,4.84,4.93,3.74c0.54,3.05,3.64,3.93,5.48,5.66
		c2.24,2.1,3.76,5.85,7.63,5.75c3.79-0.11,4.34,3.86,7.07,5.35c2.5,1.37,4.93,4.05,6.8,6.39c2.83,3.54,7.07,5.62,9.24,9.63
		c0.43,0.79,0.77,1.34,1.66,1.37c4.86,0.16,6.6,4.52,9.81,6.88c3.68,2.7,6.07,6.53,9.77,9.2c1.86,1.34,4.2,3.14,5.53,5.57
		c1.13,2.06,3.28,4.01,4.87,5.07c5.44,3.62,9.38,8.79,13.87,13.16c4.36,4.24,8.75,8.91,12.96,13.42c2.9,3.11,5.45,7.62,10.29,9.06
		c0.85,0.25,0.43,2.04,0.28,3.14c-0.01,7.67-0.01,15.34-0.05,23.01c-0.01,1.25,0.43,3.28-0.68,3.56c-4.3,1.07-2.97,4.35-2.97,6.93
		c-0.14,47.79-0.21,95.57-0.3,143.36c-6.61,1.24-11.3-6.18-18.13-4.05c-0.16,0.05-0.77-0.64-0.82-1.03
		c-0.35-2.87-2.51-2.39-4.37-2.42c-3.68-0.06-7.37-0.06-11.05-0.12c-0.96-0.01-2.57,0.16-2.77-0.26c-2.85-6.08-8.31-2.56-12.52-3.52
		c-1.21-0.28-3.28,0.4-3.55-0.73c-1.13-4.65-4.72-2.67-7.39-3.05c-2.66-0.38-6.8,1.17-7.76-0.77c-2.05-4.14-5.17-2.89-8.04-3
		c-5.28-0.2-10.57-0.1-15.86-0.12C350.9,707.52,349.53,707.48,348.17,707.44z"/>
	<path class="st1" d="M614.03,549.84c4.31,1.25,5.37-3.22,7.53-4.99c3.79-3.11,7.52-6.71,10.6-10.48c2.86-3.5,6.83-5.8,9.26-9.77
		c1.12-1.83,3.17-4.13,5.01-4.9c2.84-1.19,3.57-3.99,5.93-5.57c3.14-2.09,4.72-6.58,9.36-6.77c2.88-0.12,1.62-5.22,5.29-4.15
		c1.39-4.65,6.04-6.62,8.98-9.88c2.79-3.1,6.06-6.41,9.67-9.11c1.84-1.37,3.77-3.76,5.64-5.45c2.3-2.09,3.7-5.89,7.64-5.8
		c3.75,0.09,4.32-3.86,7.01-5.37c2.52-1.42,4.1-4.77,7.05-6.17c1.78-0.84,2.7-2.96,3.54-4.04c3.66-4.73,10.8-4.4,13.69-10.47
		c0.78-1.64,4.05-5.97,8.6-5.03c2.55,0.53,1.49-4.81,4.95-3.69c0.03-3.47,4.88-2.76,5.21-5.98c0.07-0.72,0.55-1.15,1.28-1.15
		c5.15-0.04,7.98-3.38,10.52-7.24c0.26-0.4,1.15-0.54,1.74-0.54c4.65,0,6.97-3.58,9.55-6.48c0.96-1.07,1.87-0.87,2.84-1.19
		c1.86-0.62,4.87,0.61,4.92-3.05c0-0.29,0.96-0.74,1.51-0.81c2.67-0.32,5.86,0.42,6.57-3.53c5.29,1.23,8-4.98,13.27-4.42
		c4.92,0.52,9.93,0.15,14.89,0.23c2.3,0.03,1.54,1.94,1.87,3.2c0.79,3.04-1.22,7.18,3.42,8.77c0.23,0.08,0.29,0.88,0.29,1.35
		c-0.05,7.53,2.21,16.18-0.76,22.3c-3.84,7.89-0.37,16.07-3.63,22.76c-2.27,4.66-1.12,10.62-3.68,13.28
		c-4.4,4.56-2.24,9.28-3.33,13.8c-0.18,0.77,0,2.16-0.33,2.27c-5.18,1.83-2.65,6.31-3.45,9.62c-0.59,2.47,1.29,6.02-3.14,6.87
		c-0.39,0.07-0.34,2.05-0.62,3.11c-0.78,3.01,1.62,7.15-3.31,8.8c-0.59,0.2-0.35,2.67-0.61,4.07c-0.49,2.64,1.35,6.19-3.14,7.36
		c-0.59,0.15-0.4,2.95-0.73,4.49c-0.53,2.44,1.48,6.07-3.11,6.77c-0.33,0.05-0.39,1.72-0.61,2.63c-0.77,3.17,1.46,7.38-3.46,9.21
		c-0.66,0.25-0.29,3-0.59,4.55c-0.45,2.35,1.16,5.74-3.09,6.35c-0.31,0.04-0.45,1.38-0.63,2.13c-0.52,2.19,1,5.44-3.12,5.83
		c-0.3,0.03-0.44,1.7-0.65,2.61c-0.74,3.2,1.3,7.41-3.56,9.17c-0.54,0.2-0.4,2.37-0.52,3.64c-0.15,1.52,0.34,3.38-2.16,3.46
		c-0.68,0.02-1.22,0.42-1.31,1.15c-0.54,4.23,0.27,8.61-3.88,12.06c-1.49,1.23,0.46,5.62-3.57,6.52c-0.4,0.09-0.35,2.05-0.54,3.14
		c-0.3,1.72,0.51,4.04-2.59,4.19c-1.27,0.06-0.94,1.43-1.09,2.32c-0.38,2.27,0.71,5.32-3.21,5.78c-0.34,0.04-0.42,2.01-0.69,3.07
		c-0.73,2.88,1.29,6.91-3.53,8.16c-0.42,0.11-0.3,2.07-0.53,3.15c-0.37,1.7,0.41,4.17-2.69,4.13c-0.24,0-0.72,0.4-0.69,0.51
		c1.34,4.99-4.69,7.18-4.45,11.75c0.07,1.44,0.08,2.99-2.09,3.03c-0.4,0.01-1.16,0.51-1.14,0.62c1.32,5-4.73,7.15-4.5,11.72
		c0.07,1.47,0,2.96-2.13,2.99c-0.96,0.01-1.39,0.69-1.39,1.6c0.01,5.11-3.12,8.1-6.97,10.77c-0.66,0.45-0.51,2.06-0.73,3.13
		c-0.35,1.7,0.49,4.12-2.6,4.16c-0.34,0-0.93,0.52-0.97,0.85c-0.35,3.26-0.29,6.66-3.97,8.4c-0.28,0.13-0.12,1.21-0.17,1.85
		c-4.33,1.16-9.97-2.4-13,3.63c-0.19,0.37-1.51,0.21-2.31,0.22c-2.4,0.04-4.88-0.32-7.2,0.15c-4.52,0.9-10.3-2.9-13.49,3.48
		c-0.22,0.44-1.81,0.24-2.77,0.26c-2.72,0.05-5.45,0.03-8.17,0.09c-1.07,0.03-2.67-0.31-2.92,1c-0.7,3.63-3.49,2.31-5.64,2.78
		c-6.35,1.39-13.87-3.29-19.2,3.65c-0.32,0.42-1.53,0.18-2.33,0.19c-1.92,0.04-3.88-0.16-5.76,0.11c-4.55,0.66-5.95-0.95-5.92-5.69
		c0.2-28.33,0.05-56.67-0.01-85c0-1.57,0.13-4.29-0.52-4.53c-5.14-1.88-2.99-6.09-3.14-9.33c-0.32-6.71-0.14-13.44-0.21-20.17
		c-0.01-1.41,0.52-3.34-0.79-4.07c-3.86-2.15-2.5-5.71-3.03-8.87c-0.95-5.76,2.83-12.5-3.48-17.24c-0.51-0.38-0.26-1.83-0.28-2.78
		c-0.05-2.56-0.24-5.14-0.02-7.68c0.25-3.01-0.97-4.13-3.84-3.79C614.01,552.53,614.02,551.18,614.03,549.84z"/>
	<path class="st2" d="M614.03,549.84c-0.01,1.34-0.02,2.69-0.03,4.03c-3.04-0.56-4.06,1.01-3.97,3.75c-2.91-0.43-4.1,0.87-3.76,3.71
		l-0.09,0.09c-2.87-0.35-4.13,0.9-3.74,3.77c-0.32,1.28,0.62,3.34-1.3,3.65c-3.12,0.5-4.04,3.55-5.85,5.21
		c-3.75,3.43-7.56,7.05-10.79,10.95c-1.8,2.18-5.81,3.26-5.28,7.22c-2.92-0.42-4.08,0.9-3.72,3.73c-0.09,0.94,0.17,2.43-0.32,2.74
		c-3.71,2.36-6.34,5.86-9.21,9c-2.14,2.34-5.99,3.54-5.99,7.6c-2.92-0.42-4.08,0.9-3.72,3.73c0.22,4.16-4.12,4.96-5.75,7.77
		c-1.64,2.83-5.83,3.71-5.93,7.73c-2.94-0.42-4.08,0.92-3.71,3.76c0.58,4.16-4.1,4.64-5.56,7.5c-0.26,0.51-5.6,1.86-5.75-2.13
		c-0.18-4.85-4.03-6.4-6.38-9.42c-2.02-2.61-6.6-3.88-5.51-8.57c0.13-0.56-0.03-1.62-0.37-1.78c-4.13-1.91-6.4-5.92-9.4-8.94
		c-2.02-2.03-6.06-3.3-5.51-7.44c0.36-2.83-0.8-4.16-3.72-3.73c-0.15-0.94,0.03-2.41-0.49-2.72c-3.79-2.28-6.28-5.92-9.23-8.98
		c-2.16-2.24-6.07-3.47-5.81-7.63c0.38-2.87-0.87-4.12-3.74-3.77l-0.09-0.09c0.33-2.82-0.83-4.14-3.74-3.72
		c-0.38-1.57-0.06-3.05-2.36-4.08c-2.01-0.9-3.62-3.28-5.27-5.07c-3.31-3.61-7.38-6.58-10.23-10.4c-1.81-2.43-6.37-3.18-5.42-7.55
		c0.07-5.26,0.13-10.52,0.21-15.77c0.02-1.57-0.2-3.12,2.1-3.59c1.98-0.4,1.19-2.36,1.25-3.64c0.31-6.36,0.5-12.73,0.73-19.09
		c2.24,0.19,3.7-0.42,3.46-3.09c-0.14-1.56-0.05-3.15-0.07-4.72c0.15-5.09,0.3-10.17,0.45-15.26c2.17,0.16,3.69-0.35,3.46-3.02
		c-0.13-1.55-0.02-3.11-0.02-4.67c0.11-3.85,0.21-7.7,0.32-11.55c2.14,0.15,3.77-0.22,3.55-2.97c-0.12-1.56-0.02-3.13-0.02-4.7
		c-0.15-3.86-0.21-7.71,0.41-11.54c3.22,0.42,3.75-1.41,3.38-4.01c0.12-3.8,0.23-7.59,0.35-11.39c3.31,0.45,3.91-1.38,3.46-4.1
		c0.13-3.76,0.26-7.52,0.39-11.28c3.32,0.45,3.91-1.39,3.46-4.11c0.04-2.86,0.07-5.72,0.14-8.58c0.02-0.78-0.02-2.14,0.32-2.26
		c5.37-1.96,2.6-6.63,3.44-10.06c0.57-2.31-1.14-5.63,3.06-6.37c0.44-0.08,0.46-2.3,0.73-3.52c0.62-2.88-1.35-6.51,3.18-8.36
		c1.09-0.44,0.74-4.39,1.06-6.73c3.24,0.45,3.93-1.31,3.49-4.03c-0.14-2.52-0.15-5.02,0.48-7.49c3.03,0.42,3.76-1.23,3.45-3.82
		c0.09-1.3,0.18-2.59,0.27-3.89c3.15,0.45,3.93-1.22,3.53-3.94c0.1-1.25,0.2-2.5,0.3-3.74c3.11,0.44,3.95-1.18,3.55-3.91
		c0.13-1.26,0.26-2.51,0.4-3.77c2.94,0.43,3.8-1.1,3.53-3.72c0.22-3.24,4.49-7.62,7.63-7.84c2.7,0.36,4.32-0.45,3.87-3.53
		c1.3-0.38,2.59-0.42,3.87,0.04c-0.44,2.99,1.13,3.83,3.77,3.53c3.34,0.28,7.45,4.37,7.77,7.7c-0.35,2.74,0.6,4.25,3.62,3.81
		c0.73,1.42-0.11,3.68,2.83,3.9c2.18,0.16,0.95,2.48,1.26,3.83c-0.34,2.68,0.52,4.25,3.54,3.82c0.76,1.45-0.24,3.99,2.82,4.03
		c1.55,0.02,1.02,1.64,1.23,2.63c0.44,2.06-0.41,4.33,3.02,5.43c1.76,0.57,1.02,4.52,1,7c-0.41,2.73,0.35,4.41,3.52,3.97
		c0.09,1.29,0.18,2.57,0.27,3.86c-0.33,2.62,0.43,4.27,3.48,3.83c1.18,2.8-0.96,6.88,3.74,8.55c0.86,0.31,0.38,4.4,0.51,6.74
		c-0.38,2.67,0.34,4.37,3.48,3.93c1.13,2.88-1.13,7.16,3.73,8.62c0.53,0.16,0.24,2.7,0.52,4.1c0.5,2.46-1.22,5.5,3.03,6.97
		c1.64,0.57,0.76,4.7,0.75,7.23c-0.3,2.54,0.32,4.26,3.39,3.85c0.18,1.71,0.23,3.45,0.56,5.14c0.47,2.42-1.41,5.81,3.07,6.69
		c1.14,0.23,0.47,2.57,0.57,3.95c0.03,2.54,0.22,5.09,0.06,7.62c-0.18,2.76,0.97,3.81,3.61,3.49c0.11,2.53,0.22,5.05,0.33,7.58
		c-0.38,2.64,0.26,4.4,3.44,3.97c0.09,1.4,0.18,2.8,0.27,4.2c0.03,2.55,0.21,5.11,0.05,7.65c-0.18,2.75,0.94,3.85,3.61,3.52
		c0.1,2.55,0.2,5.1,0.31,7.65c1.19,2.58-3.03,7.65,3.58,7.72c0.16,2.54,0.27,5.08,0.48,7.61c0.14,1.62-0.4,3.6,2.3,3.91
		c1.49,0.17,1.14,1.7,1.17,2.74c0.12,4.13,0.17,8.27,0.25,12.4c-0.44,2.69,0.11,4.55,3.43,4.11c0.12,3.82,0.23,7.65,0.35,11.47
		c1.18,2.59-3.06,7.66,3.57,7.75C613.85,544.75,613.94,547.3,614.03,549.84z"/>
	<path class="st3" d="M502.39,607.49c-0.54,4.14,3.5,5.42,5.51,7.44c3,3.02,5.27,7.03,9.4,8.94c0.34,0.16,0.5,1.22,0.37,1.78
		c-1.09,4.69,3.48,5.97,5.51,8.57c2.34,3.02,6.2,4.57,6.38,9.42c0.14,3.99,5.48,2.64,5.75,2.13c1.45-2.86,6.14-3.33,5.56-7.5
		c2.9,0.39,4.27-0.74,3.71-3.76c0.1-4.01,4.29-4.9,5.93-7.73c1.63-2.81,5.96-3.61,5.75-7.76c2.93,0.44,4.27-0.71,3.72-3.73
		c0-4.06,3.85-5.26,5.99-7.6c2.87-3.14,5.5-6.63,9.21-9c0.49-0.31,0.23-1.8,0.32-2.74c2.93,0.44,4.26-0.71,3.72-3.73
		c-0.53-3.97,3.47-5.04,5.28-7.22c3.23-3.9,7.04-7.52,10.79-10.95c1.81-1.66,2.73-4.71,5.85-5.21c1.92-0.31,0.98-2.37,1.3-3.65
		c2.98,0.46,4.24-0.79,3.74-3.77c0,0,0.09-0.09,0.09-0.09c2.95,0.48,4.25-0.71,3.76-3.71c-0.09-2.75,0.93-4.31,3.97-3.75
		c2.87-0.35,4.1,0.78,3.84,3.79c-0.21,2.54-0.02,5.12,0.02,7.68c0.02,0.95-0.23,2.4,0.28,2.78c6.31,4.74,2.53,11.48,3.48,17.24
		c0.52,3.16-0.83,6.73,3.03,8.87c1.31,0.73,0.78,2.66,0.79,4.07c0.06,6.72-0.11,13.46,0.21,20.17c0.15,3.24-2,7.45,3.14,9.33
		c0.65,0.24,0.51,2.96,0.52,4.53c0.06,28.33,0.21,56.67,0.01,85c-0.03,4.73,1.36,6.34,5.92,5.69c1.89-0.27,3.84-0.07,5.76-0.11
		c0.8-0.02,2.01,0.22,2.33-0.19c5.34-6.94,12.85-2.26,19.2-3.65c2.15-0.47,4.93,0.85,5.64-2.78c0.25-1.31,1.85-0.97,2.92-1
		c2.72-0.07,5.45-0.04,8.17-0.09c0.96-0.02,2.55,0.18,2.77-0.26c3.18-6.37,8.97-2.57,13.49-3.48c2.32-0.46,4.79-0.1,7.2-0.15
		c0.8-0.01,2.12,0.15,2.31-0.22c3.03-6.03,8.67-2.48,13-3.63c0,0,0,0,0,0c-0.3,4.18-5.74,6.24-4.58,11.04
		c0.01,0.06-0.22,0.19-0.35,0.27c-3.78,2.45-7.31,5.05-6.9,10.33c0.07,0.91-0.68,1.4-1.53,1.49c-2.69,0.29-1.95,2.38-2.15,3.98
		c-2.89-0.37-4.3,0.71-3.67,3.77c-0.64,4.09-5.55,6.35-4.76,11.06c0.01,0.04-0.29,0.1-0.4,0.2c-3.25,2.66-7.22,4.83-6.72,10.04
		c0.11,1.15-1.43,1.24-1.77,1.8c-1.69,2.77-6.06,3.56-5.77,7.74c-2.9-0.39-4.26,0.75-3.71,3.76c-0.42,1.5-0.79,2.69-2.09,4.09
		c-2.05,2.23-6.18,3.36-5.74,7.55c-2.93-0.43-4.26,0.72-3.72,3.74c0.53,3.92-3.44,4.96-5.17,7.27c-3.56,4.77-10.39,6.99-10.68,14.4
		c-0.08,1.92-2.33,1.03-3.54,1.53c-2.95-0.46-4.22,0.74-3.69,3.72c-0.24,1.07-0.12,2.72-0.77,3.12c-3.19,1.98-5.03,5.56-7.81,7.37
		c-2.39,1.57-2.94,5.96-6.97,5.03c-3.03-0.54-4.19,0.79-3.72,3.73l-0.09,0.09c-2.99-0.5-4.23,0.76-3.78,3.74
		c-1.09,0.17-3.12,0.35-3.12,0.52c0.01,3.45-3.84,3.58-5.33,5.94c-0.98,1.56-2.81,5.14-5.77,4.88c-4.75-0.42-6.42,3.45-8.89,5.86
		c-3.38,3.31-6.22,7-11.71,5.71c0.01-1.25,0.02-2.5,0.02-3.75l0.01-0.01c3,0.46,4.34-0.77,3.86-3.82c0.01-4.02,4.17-4.88,5.82-7.65
		c1.65-2.77,5.83-3.67,5.71-7.74c6.74,0.17,2.84-4.98,3.85-7.68l0,0c2.9,0.44,4.17-0.71,3.92-3.7c-0.1-1.21-0.46-3.2,0.84-3.47
		c3.47-0.72,2.94-3.17,3.01-5.5c0.03-0.95-0.03-2.22,1.12-2.37c3.09-0.41,2.7-2.65,2.68-4.69c-0.02-1.75,0.21-3.17,2.37-3.45
		c1.15-0.15,1.34-1.17,1.44-2.18c0.37-3.78-1.56-8.34,3.63-10.56c0.4-0.17,0.22-1.81,0.24-2.76c0.04-2.72,0.02-5.44,0.06-8.16
		c0.02-1.28-0.1-2.74,1.63-3.02c2.61-0.42,2.15-2.38,2.16-4.07c0.05-7.52,0.02-15.05,0.09-22.57c0.01-1.35-0.65-3.41,1.08-3.8
		c3.28-0.75,2.68-3.06,2.69-5.21c0.03-4.48,0.12-8.97-0.02-13.45c-0.05-1.7,1.06-4.56-1.83-4.61c-3.14-0.05-7.22-1.97-9.31,1.28
		c-1.36,2.12-2.62,2.12-4.49,2.42c-4.26,0.69-9.69-2.54-12.46,3.55c-0.14,0.3-1.2,0.18-1.84,0.24c-3.48,0.36-7.75-1.53-9.61,3.51
		c-0.15,0.4-1.79,0.24-2.75,0.34c-0.31-2.45,1.24-6.04-1.09-7.12c-2.84-1.32-2.73-3.04-2.79-5.24c-0.02-0.95,0.12-2.4-0.82-2.56
		c-3.49-0.58-2.99-3.11-3.06-5.46c-0.03-0.95,0.03-2.22-1.12-2.37c-3.1-0.41-2.6-2.67-2.71-4.7c-0.06-1.07,0.13-2.15-0.99-3.01
		c-3.39-2.59-7.44-4.77-6.83-10.11c0.05-0.45-0.6-1.36-1-1.41c-3.11-0.36-2.61-2.67-2.73-4.7c-0.06-1.07,0.12-2.14-1-3
		c-3.38-2.59-7.43-4.78-6.82-10.12c0.05-0.44-0.56-1.07-1.01-1.44c-3.19-2.58-7.17-4.6-6.63-9.74c0.05-0.52-0.32-1.35-0.75-1.63
		c-3.88-2.5-7.03-5.13-7.29-10.48c-0.09-1.82-3.03-4.01-5.15-5.09c-3.19-1.62-5.63,0.22-5.95,3.84c-0.1,1.09,0.29,2.45-0.74,3.15
		c-3.77,2.55-7.58,4.99-7.16,10.43c0.03,0.43-0.64,1-1.11,1.36c-3.3,2.54-7.16,4.67-6.52,9.84c0.06,0.48-0.44,1.2-0.88,1.55
		c-3.37,2.65-7.46,4.76-6.83,10.13c0.05,0.46-0.56,1.39-0.96,1.44c-3.35,0.46-2.68,2.99-2.79,5.14c-0.05,0.94,0,1.86-0.93,2.55
		c-3.44,2.56-7.48,4.71-6.85,10.09c0.13,1.12-0.84,1.62-1.88,1.79c-1.7,0.27-1.96,1.54-1.81,2.87c0.54,4.69-5.88,6.75-4.47,11.78
		c0.03,0.1-1.03,0.6-1.62,0.74c-1.42,0.35-1.78,1.44-1.58,2.57c0.9,5.17-2.28,5.46-5.99,5.1c-2.99-0.28-7.51,1.42-8.66-0.84
		c-2.02-3.99-4.84-2.68-7.57-3c-2.67-0.31-6.83,1.24-7.76-0.75c-2.13-4.52-5.46-2.7-8.47-3.02l-0.23-0.24
		c0.09-47.79,0.16-95.57,0.3-143.36c0.01-2.58-1.33-5.86,2.97-6.93c1.11-0.28,0.68-2.31,0.68-3.56c0.04-7.67,0.04-15.34,0.05-23.01
		c1.26-0.01,2.52-0.03,3.77-0.04c-0.95,4.37,3.61,5.13,5.42,7.55c2.85,3.82,6.91,6.8,10.23,10.4c1.65,1.79,3.26,4.18,5.27,5.07
		c2.3,1.03,1.98,2.52,2.36,4.08c-0.53,3.02,0.79,4.19,3.74,3.72c0,0,0.09,0.09,0.09,0.09c-0.5,2.98,0.76,4.23,3.74,3.77
		c-0.26,4.16,3.65,5.39,5.81,7.63c2.95,3.06,5.44,6.7,9.23,8.98c0.52,0.31,0.34,1.79,0.49,2.72
		C498.13,606.77,499.46,607.92,502.39,607.49z"/>
	<path class="st4" d="M598.56,838.23c0.12,4.07-4.06,4.97-5.71,7.74c-1.65,2.77-5.81,3.64-5.82,7.65c-2.95-0.41-4.24,0.87-3.86,3.82
		c0,0-0.01,0.01-0.01,0.01c-2.98-0.38-4.29,0.88-3.8,3.88l0.09,0.1c-2.98-0.59-4.4,0.54-4.03,3.65c-1.2,0.09-2.41,0.19-3.61,0.28
		c-3.15-0.7-4.44,0.57-3.96,3.73c0,0,0.14,0.11,0.14,0.11c-1.33-0.04-2.66-0.07-3.98-0.11c-1.28,0-2.56-0.01-3.84-0.01
		c-2.9-0.47-4.33,0.62-3.93,3.67c-1.25,0.08-2.5,0.16-3.75,0.24c-3.83,0.03-7.67,0.05-11.5,0.08c-5.21,0-10.42,0-15.62,0
		c-3.82-0.03-7.65-0.06-11.47-0.09c-1.26-0.09-2.52-0.17-3.77-0.26c0.41-3.19-1.14-4.16-4.06-3.57c-2.52-0.03-5.05-0.06-7.57-0.09
		c0,0,0.1-0.09,0.1-0.09c0.52-3.2-0.95-4.29-3.97-3.71c-1.2-0.1-2.39-0.2-3.59-0.3c0.37-3.08-1.07-4.19-4-3.66l0,0
		c0.42-2.93-0.85-4.23-3.79-3.91c-0.18-1.67-0.84-2.68-2.15-4.07c-2.02-2.14-6.05-3.28-5.64-7.37c-1.05-2.68,2.76-7.8-3.87-7.67
		c-0.24-1.56,0.5-3.54-2.14-3.94c-2.31-0.35-1.37-2.41-1.66-3.8c-0.93-2.74,2.63-7.65-3.75-7.76c-0.05-2.52-0.09-5.05-0.14-7.57
		c0.02-9.93,0.02-19.86,0.06-29.79c0-1.27-0.23-3.42,0.33-3.67c5.97-2.74,2.64-7.99,3.49-12.07c0.26-1.23,0.06-3.42,0.57-3.58
		c5.01-1.58,2.83-5.65,3.3-8.78c0.18-1.2-0.45-3,1.17-3.29c3.07-0.55,2.6-2.7,2.68-4.74c0.05-1.08-0.3-2.68,1.01-2.91
		c2.93-0.51,2.86-2.47,2.85-4.64c-0.01-1.38-0.3-3.2,1.81-3.27c1.83-0.07,4.71-1.07,5.3,0.82c1.24,4.04,4.17,2.5,6.6,2.9
		c1.77,0.29,4.42-1.06,5.13,1.26c0.89,2.91,2.82,2.44,4.85,2.59c2.91,0.22,6.58-1.39,7.82,3.23c0.12,0.44,2.03,0.44,3.11,0.59
		c1.08,0.15,2.83-0.38,3.12,0.64c1.47,5.22,7.19,3.69,10.53,6.38c3.21,2.58,10.12,0.59,15.41,0.51c0.49-0.01,1.35-0.61,1.4-1.02
		c0.38-3.1,2.67-2.62,4.72-2.69c1.25-0.04,2.22-0.16,3.26-1.37c2.96-3.43,7.64-4.09,11.48-6.1c2.65-1.39,7.13,1.46,8.65-3.51
		c0.12-0.41,1.74-0.43,2.68-0.5c3.38-0.26,7.43,1.33,9.12-3.54c0.14-0.39,1.79-0.25,2.74-0.36c0.08,1.23-0.46,3.16,0.89,3.43
		c3.16,0.62,3,2.73,2.95,4.99c-0.03,1.51,0.09,2.9,2.04,3.18c1.71,0.24,1.64,1.59,1.79,2.89c0.39,3.44-1.73,7.79,3.45,9.61
		c0.4,0.14,0.35,1.77,0.37,2.71c0.05,2.71,0,5.42,0.06,8.13c0.03,1.21-0.4,2.93,1.23,3.25c3.37,0.66,2.54,3.17,2.55,5.24
		c0.04,16.27,0.03,32.54,0.03,48.81c0,0,0,0,0,0c-2.2-0.13-4.09,0.05-3.85,3.06C598.68,835.14,598.57,836.69,598.56,838.23z"/>
	<path class="st2" d="M571.8,865.37c1.2-0.09,2.41-0.19,3.61-0.28c2.98,0.59,4.48-0.46,4.03-3.65l-0.09-0.1
		c1.26-0.05,2.52-0.09,3.78-0.14c5.49,1.29,8.33-2.41,11.71-5.71c2.47-2.41,4.14-6.29,8.89-5.86c2.96,0.26,4.78-3.32,5.77-4.88
		c1.49-2.36,5.34-2.49,5.33-5.94c0-0.17,2.03-0.35,3.12-0.52c2.88,0.39,4.13-0.86,3.78-3.74c0,0,0.09-0.09,0.09-0.09
		c2.82,0.33,4.15-0.82,3.72-3.73c4.03,0.92,4.57-3.47,6.97-5.03c2.78-1.82,4.62-5.4,7.81-7.37c0.65-0.4,0.53-2.05,0.77-3.12
		c2.89,0.41,4.1-0.86,3.69-3.72c1.21-0.5,3.47,0.39,3.54-1.53c0.29-7.41,7.12-9.63,10.68-14.4c1.73-2.31,5.7-3.35,5.17-7.27
		c2.92,0.42,4.08-0.9,3.72-3.74c-0.44-4.19,3.69-5.32,5.74-7.55c1.29-1.4,1.67-2.59,2.09-4.09c2.94,0.42,4.08-0.92,3.71-3.76
		c-0.29-4.18,4.07-4.97,5.77-7.74c0.34-0.56,1.88-0.65,1.77-1.8c-0.5-5.21,3.47-7.38,6.72-10.04c0.12-0.1,0.41-0.16,0.4-0.2
		c-0.8-4.71,4.12-6.97,4.76-11.06c2.94,0.42,4.04-0.96,3.67-3.77c0.2-1.6-0.54-3.69,2.15-3.98c0.85-0.09,1.6-0.59,1.53-1.49
		c-0.41-5.28,3.12-7.88,6.9-10.33c0.13-0.08,0.36-0.21,0.35-0.27c-1.16-4.79,4.27-6.86,4.58-11.04c3.81,0.03,7.61,0.07,11.42,0.1
		c2.82,0,5.65-0.11,8.46,0.05c2.61,0.15,3.31-1.15,3.12-3.41c19.24-0.84,38.48-0.65,57.73-0.15c0.06,6.45,5.08,2.32,7.59,3.55
		c2.92-0.52,4.47,0.36,4.19,3.66c-0.23,2.66-0.09,5.35-0.18,8.03c-0.07,1.79,0.43,3.8-2.56,4.03c-1.93,0.15-0.65,2.5-1.63,3.51
		c-2.92-0.43-3.9,1.03-3.6,3.71c0.82,4.08-3.26,5.39-5.08,7.41c-3.34,3.69-6.94,7.36-10.69,10.63c-2.07,1.81-3.26,5.96-7.37,5.14
		c-2.84-0.38-4.15,0.81-3.83,3.7c0,0-0.14,0.1-0.14,0.1c-2.63-0.23-4.09,0.72-3.66,3.59c-3.43,1-4.86,4.51-7.65,6.17
		c-2.81,1.67-3.68,6-7.87,5.65c-2.69-0.3-4.15,0.67-3.72,3.59c-3.74,0.21-5.48,3.7-7.29,5.83c-1.52,1.79-2.64,1.93-4.34,2.12
		c-2.68-0.31-4.2,0.6-3.76,3.57c-1.37,0.81-3.73-0.16-3.9,2.82c-0.13,2.24-2.45,1-3.78,1.33c-2.75-0.37-4.3,0.54-3.86,3.59
		c-3.69,0.64-5.37,3.91-7.66,6.22c-0.8,0.81-1.27,1.45-2.44,1.6c-2.3,0.3-5.11-0.45-5.63,3.35c-0.15,1.13-2.28,0.46-3.5,0.61
		c-2.74-0.37-4.3,0.53-3.86,3.58c-1.43,0.73-3.72-0.19-3.97,2.77c-0.18,2.18-2.52,0.91-3.86,1.28c-2.62-0.28-4.15,0.59-3.72,3.52
		c-1.26,0.13-2.51,0.26-3.77,0.39c-2.75-0.4-4.37,0.45-3.92,3.56c-1.51,0.71-4.19-0.12-3.92,2.96c0.01,0.15-0.12,0.44-0.14,0.43
		c-4.77-0.9-6.88,4.89-11.43,4.53c-2.62-0.3-4.2,0.52-3.77,3.5c-1.28,0.13-2.57,0.25-3.85,0.38c-2.67-0.35-4.28,0.47-3.84,3.51
		c-1.28,0.11-2.56,0.22-3.84,0.34c-2.67-0.35-4.29,0.45-3.86,3.51c-1.28,0.11-2.56,0.22-3.84,0.34c-2.68-0.35-4.29,0.45-3.86,3.51
		c-1.3,0.1-2.6,0.21-3.89,0.31c-2.62-0.31-4.24,0.46-3.81,3.48c-2.76,1.24-6.93-1.08-8.52,3.74c-0.27,0.83-4.38,0.39-6.72,0.54
		c-2.73-0.42-4.45,0.31-4,3.51c-1.3,0.09-2.59,0.18-3.89,0.27c-2.54-0.29-4.24,0.36-3.83,3.39c-2.53,0.16-5.07,0.33-7.6,0.49
		c-2.64-0.36-4.37,0.31-3.94,3.45c-2.56,0.12-5.12,0.25-7.68,0.37c-2.54-0.31-4.3,0.29-3.88,3.37c-3.8,0.64-7.63,0.69-11.47,0.53
		C571.75,867.86,571.78,866.61,571.8,865.37z"/>
	<path class="st2" d="M348.17,707.44c1.36,0.04,2.73,0.08,4.1,0.13c0.44,2.51-1.5,6.02,1.44,7.34c2.48,1.12,2.29,2.61,2.45,4.43
		c0.1,1.08-0.28,2.4,0.75,3.13c3.66,2.59,7.49,4.97,7.09,10.34c-0.07,0.9,0.62,1.46,1.5,1.55c2.71,0.29,1.98,2.39,2.17,4.01
		c-0.37,2.82,0.75,4.18,3.69,3.77c0.42,1.51-0.35,3.59,2.34,3.94c2.35,0.3,1.38,2.42,1.67,3.83c-0.37,2.82,0.75,4.18,3.69,3.77
		c0.43,1.51-0.34,3.59,2.34,3.94c2.35,0.3,1.38,2.42,1.67,3.82c-0.37,2.82,0.75,4.19,3.69,3.77c0.42,1.5,0.71,2.69,2.08,4.11
		c2.09,2.17,6.19,3.34,5.77,7.53c-0.36,2.81,0.78,4.15,3.7,3.74c0.42,1.51,0.74,2.69,2.08,4.11c2.08,2.19,6.25,3.27,5.78,7.51
		c-0.37,2.84,0.78,4.18,3.71,3.76c1.28,5.4,6.52,7.5,9.62,11.42c2.74,3.46,6.75,5.92,9.52,9.36c2.82,3.52,6.32,6.32,9.27,9.68
		c3.17,3.61,6.79,7.03,10.47,10.15c2.32,1.97,3.46,5.85,7.45,5.67c-0.43,2.94,0.92,4.08,3.77,3.71c1.22,0.18,2.72-0.41,3.56,0.82
		c2.52,3.7,4.93,7.43,10.26,7.05c0.9-0.06,1.46,0.63,1.53,1.5c0.22,2.68,2.44,1.92,3.97,2.36c-0.41,2.93,0.99,4,3.77,3.65
		c1.32-0.02,2.65-0.03,3.97-0.05c0,0,0,0,0,0c0.05,1.23,0.11,2.45,0.16,3.68l-0.21,0.21c-1.32,0.01-2.63,0.03-3.95,0.04
		c-2.53-0.12-5.06-0.25-7.6-0.37c0.44-3.17-1.29-3.85-3.96-3.46c-2.53-0.14-5.05-0.27-7.58-0.41c0.43-3.11-1.27-3.81-3.91-3.46
		c-3-0.55-6.8,1.78-8.66-3.12c-0.4-1.05-4.36-0.76-6.68-1.08c0.44-3.09-1.22-3.85-3.88-3.49c-1.27-0.1-2.55-0.19-3.82-0.29
		c0.45-3.17-1.24-3.94-3.97-3.52c-2.81-0.69-6.91,1.95-8.08-3.18c-0.09-0.38-1.72-0.38-2.62-0.61c-1.91-0.5-4.79,0.62-4.9-2.96
		c-0.01-0.28-0.97-0.7-1.52-0.78c-2.62-0.36-5.85,0.46-6.45-3.55c-4.7,0.96-7.04-3.69-10.94-4.61c0.44-3.09-1.16-3.95-3.9-3.56
		c-1.27-0.13-2.53-0.26-3.8-0.4c0.43-2.96-1.14-3.8-3.75-3.5c-1.72-0.18-4.12,0.87-4.19-2.32c-0.01-0.28-0.27-0.82-0.35-0.81
		c-4.7,0.69-7.04-3.86-10.95-4.9c0.43-2.96-1.13-3.81-3.76-3.51c-1.93-0.01-4.03,0.61-4.29-2.6c-0.15-1.82-2.46-0.59-3.51-1.46
		c0.44-3.04-1.1-3.96-3.85-3.59c-1.6-0.26-3.87,0.9-4.07-2.19c-0.15-2.36-2.57-0.96-3.62-1.9c0.44-3.04-1.09-3.97-3.85-3.6
		c-1.61-0.26-3.88,0.9-4.08-2.2c-0.15-2.35-2.6-0.93-3.62-1.95c0.44-2.96-1.07-3.89-3.76-3.58c-4.2,0.53-5.68-3.46-7.7-5.6
		c-1.33-1.41-2.75-1.4-3.94-2.29c0.44-3-1.05-3.98-3.81-3.63c-4.21,0.9-4.42-4.56-7.84-4.91c0.38-3.01-2.36-2.19-3.74-3.05
		c0.43-2.92-1.01-3.91-3.72-3.61c-4.1,0.81-5.36-3.29-7.46-5.11c-3.8-3.28-7.75-6.72-10.98-10.48c-2.91-3.38-6.25-6.48-9.27-9.67
		c-2.97-3.14-6.22-6.37-9.39-9.43c-2.03-1.96-6.16-3.43-5.33-7.7c0.27-2.6-0.57-4.15-3.51-3.71c-0.13-2.7-0.11-5.42-0.42-8.1
		c-0.39-3.29,1.32-3.82,3.97-3.43c2.53,0.27,4.21-0.4,3.79-3.4c9.69-1,19.41-0.45,29.11-0.5c12.11-0.06,24.21,0.2,36.32,0.32
		c-0.32,2.66,0.76,3.79,3.52,3.6c2.7-0.19,5.42-0.07,8.13-0.08C343.28,707.48,345.73,707.46,348.17,707.44z"/>
	<path class="st3" d="M525.36,873.07c5.21,0,10.42,0,15.62,0c-0.05,1.17-0.1,2.35-0.15,3.52c-5.11,0-10.21,0-15.32,0
		C525.46,875.42,525.41,874.24,525.36,873.07z"/>
	<path class="st1" d="M540.83,876.59c0.05-1.17,0.1-2.35,0.15-3.52c3.83-0.03,7.67-0.05,11.5-0.08c0.14,2.5-0.8,3.76-3.55,3.58
		C546.24,876.4,543.53,876.57,540.83,876.59z"/>
	<path class="st1" d="M525.36,873.07c0.05,1.17,0.1,2.35,0.15,3.52c-2.7-0.02-5.41-0.2-8.09-0.01c-2.79,0.2-3.61-1.17-3.53-3.6
		C517.71,873.01,521.54,873.04,525.36,873.07z"/>
	<path class="st1" d="M590.63,449.94c-2.64,0.32-3.79-0.73-3.61-3.49c0.16-2.53-0.03-5.08-0.06-7.62c2.09,0.23,3.45,1,3.37,3.49
		C590.26,444.86,590.52,447.4,590.63,449.94z"/>
	<path class="st1" d="M741.02,704.17c0.19,2.26-0.51,3.56-3.12,3.41c-2.81-0.16-5.64-0.04-8.46-0.05c0.15-2.26,0.84-3.76,3.63-3.49
		C735.7,704.3,738.37,704.14,741.02,704.17z"/>
	<path class="st1" d="M598.33,476.86c-2.67,0.33-3.79-0.77-3.61-3.52c0.16-2.54-0.02-5.1-0.05-7.65c2.32,0.19,3.45,1.34,3.42,3.76
		C598.05,471.91,598.24,474.39,598.33,476.86z"/>
	<path class="st1" d="M340.84,707.5c-2.71,0.02-5.43-0.1-8.13,0.08c-2.75,0.19-3.84-0.94-3.52-3.6c2.68,0.01,5.38,0.22,8.03-0.02
		C340.06,703.7,340.75,705.18,340.84,707.5z"/>
	<path class="st1" d="M498.48,869.06c2.52,0.03,5.05,0.06,7.57,0.09c0.07,1.2,0.15,2.4,0.22,3.6
		C503.37,872.17,498.76,875.19,498.48,869.06z"/>
	<path class="st2" d="M491.03,864.96c1.2,0.1,2.39,0.2,3.59,0.3c0.03,1.23,0.06,2.47,0.09,3.7c-2.57-0.11-5.15-0.22-7.72-0.33
		c0-1.15-0.01-2.29-0.01-3.44c0,0,0.21-0.21,0.21-0.21C488.46,864.97,489.74,864.97,491.03,864.96z"/>
	<path class="st1" d="M806.35,707.57c-2.51-1.23-7.53,2.9-7.59-3.55C801.56,704.6,805.95,701.83,806.35,707.57z"/>
	<path class="st1" d="M467.73,457.66c0,1.57-0.1,3.14,0.02,4.7c0.22,2.74-1.41,3.12-3.55,2.97
		C464.78,462.5,462.04,458.14,467.73,457.66z"/>
	<path class="st1" d="M463.88,476.88c0,1.56-0.1,3.12,0.02,4.67c0.22,2.67-1.29,3.18-3.46,3.02
		C461.02,481.75,458.13,477.38,463.88,476.88z"/>
	<path class="st1" d="M602.21,492.23c-6.61-0.07-2.39-5.14-3.58-7.72C604.5,484.92,601.54,489.42,602.21,492.23z"/>
	<path class="st1" d="M459.99,499.82c0.02,1.57-0.07,3.16,0.07,4.72c0.24,2.66-1.23,3.27-3.46,3.09
		C457.18,504.8,454.08,500.36,459.99,499.82z"/>
	<path class="st1" d="M613.75,542.21c-6.62-0.09-2.38-5.16-3.57-7.75C616.04,534.91,613.09,539.39,613.75,542.21z"/>
	<path class="st1" d="M498.52,350.02c0.31,2.59-0.42,4.24-3.45,3.82C494.34,350.87,495.94,350,498.52,350.02z"/>
	<path class="st1" d="M263.76,704.16c0.41,3-1.26,3.68-3.79,3.4C259.93,704.98,260.74,703.34,263.76,704.16z"/>
	<path class="st1" d="M502.32,342.19c0.4,2.72-0.38,4.39-3.53,3.94C498.15,343.19,499.44,341.98,502.32,342.19z"/>
	<path class="st1" d="M609.84,523c-3.32,0.44-3.87-1.42-3.43-4.11C609.44,518.68,610.5,520.13,609.84,523z"/>
	<path class="st1" d="M594.4,461.49c-3.18,0.44-3.81-1.33-3.44-3.97C593.73,457.44,595.13,458.55,594.4,461.49z"/>
	<path class="st1" d="M548.27,342.3c-3.02,0.44-3.88-1.14-3.54-3.82C547.43,338.34,548.94,339.31,548.27,342.3z"/>
	<path class="st1" d="M471.52,442.11c0.37,2.6-0.16,4.43-3.38,4.01C467.36,443.18,468.73,442.04,471.52,442.11z"/>
	<path class="st1" d="M506.18,334.54c0.4,2.74-0.44,4.36-3.55,3.91C502,335.5,503.32,334.32,506.18,334.54z"/>
	<path class="st1" d="M540.64,330.76c-3.01,0.44-3.96-1.07-3.62-3.81C539.89,326.65,541.24,327.77,540.64,330.76z"/>
	<path class="st1" d="M256.42,719.09c2.94-0.43,3.78,1.12,3.51,3.71C257.31,722.93,255.74,722.07,256.42,719.09z"/>
	<path class="st1" d="M510.11,327.05c0.28,2.61-0.59,4.14-3.53,3.72C505.93,327.8,507.48,326.92,510.11,327.05z"/>
	<path class="st1" d="M802.56,730.49c-0.3-2.69,0.68-4.14,3.6-3.71C806.79,729.79,805.32,730.76,802.56,730.49z"/>
	<path class="st1" d="M529.26,319.25c-2.64,0.3-4.21-0.54-3.77-3.53C528.51,315,529.44,316.53,529.26,319.25z"/>
	<path class="st1" d="M775.6,757.37c-0.32-2.88,0.99-4.08,3.83-3.7C779.83,756.64,778.52,757.85,775.6,757.37z"/>
	<path class="st1" d="M771.81,761.06c-0.43-2.88,1.03-3.83,3.66-3.59C775.68,760.12,774.77,761.64,771.81,761.06z"/>
	<path class="st1" d="M563.6,373.06c-3.05,0.43-3.8-1.21-3.48-3.83C562.73,369.19,564.26,370.13,563.6,373.06z"/>
	<path class="st1" d="M302.36,765.19c2.7-0.3,4.15,0.69,3.72,3.61C303.08,769.4,302.09,767.95,302.36,765.19z"/>
	<path class="st1" d="M752.57,776.48c-0.43-2.92,1.03-3.89,3.72-3.59C756.54,775.63,755.58,777.11,752.57,776.48z"/>
	<path class="st1" d="M317.66,776.76c2.76-0.35,4.25,0.62,3.81,3.63C318.49,780.97,317.35,779.62,317.66,776.76z"/>
	<path class="st1" d="M737.17,788c-0.43-2.97,1.08-3.88,3.76-3.57C741.13,787.15,740.17,788.65,737.17,788z"/>
	<path class="st1" d="M333.11,788.28c2.69-0.31,4.2,0.61,3.76,3.58C333.87,792.5,332.9,791,333.11,788.28z"/>
	<path class="st1" d="M725.63,795.75c-0.44-3.05,1.11-3.96,3.86-3.59C729.7,794.96,728.66,796.42,725.63,795.75z"/>
	<path class="st1" d="M344.57,796c2.75-0.37,4.29,0.56,3.85,3.6C345.38,800.27,344.35,798.79,344.57,796z"/>
	<path class="st1" d="M356.11,803.69c2.75-0.37,4.29,0.55,3.85,3.59C356.92,807.96,355.9,806.48,356.11,803.69z"/>
	<path class="st1" d="M702.53,811.12c-0.44-3.05,1.11-3.95,3.86-3.58C706.6,810.34,705.57,811.8,702.53,811.12z"/>
	<path class="st1" d="M367.76,811.34c2.63-0.3,4.19,0.55,3.76,3.51C368.55,815.51,367.68,813.93,367.76,811.34z"/>
	<path class="st1" d="M690.98,818.7c-0.43-2.94,1.11-3.8,3.72-3.52C694.83,817.8,693.94,819.34,690.98,818.7z"/>
	<path class="st1" d="M683.29,822.65c-0.45-3.11,1.17-3.96,3.92-3.56C687.43,821.96,686.23,823.27,683.29,822.65z"/>
	<path class="st1" d="M387,822.88c2.62-0.29,4.18,0.54,3.75,3.5C387.79,827.05,386.93,825.46,387,822.88z"/>
	<path class="st1" d="M475.33,426.62c0.45,2.72-0.15,4.55-3.46,4.1C471.27,427.88,472.29,426.4,475.33,426.62z"/>
	<path class="st1" d="M394.55,826.78c2.74-0.39,4.34,0.47,3.9,3.56C395.42,831.03,394.39,829.56,394.55,826.78z"/>
	<path class="st1" d="M582.76,423.05c-3.06,0.41-3.68-1.32-3.39-3.85C581.95,419.21,583.57,420.06,582.76,423.05z"/>
	<path class="st1" d="M664.04,834.07c-0.43-2.98,1.15-3.79,3.77-3.5C667.88,833.17,667,834.73,664.04,834.07z"/>
	<path class="st1" d="M656.34,837.96c-0.44-3.05,1.17-3.86,3.84-3.51C660.28,837.11,659.35,838.67,656.34,837.96z"/>
	<path class="st1" d="M479.17,411.24c0.45,2.72-0.14,4.56-3.46,4.11C475.12,412.5,476.14,411.02,479.17,411.24z"/>
	<path class="st1" d="M648.65,841.8c-0.44-3.06,1.18-3.86,3.86-3.51C652.6,840.98,651.64,842.51,648.65,841.8z"/>
	<path class="st1" d="M640.95,845.65c-0.44-3.06,1.18-3.86,3.86-3.51C644.9,844.83,643.94,846.35,640.95,845.65z"/>
	<path class="st1" d="M432.96,846.02c2.74-0.41,4.42,0.36,3.97,3.52C434.02,850.17,432.74,848.94,432.96,846.02z"/>
	<path class="st1" d="M633.25,849.44c-0.43-3.02,1.19-3.79,3.81-3.48C637.08,848.53,636.2,850.13,633.25,849.44z"/>
	<path class="st1" d="M440.76,849.84c2.67-0.36,4.32,0.41,3.88,3.49C441.65,854.04,440.67,852.53,440.76,849.84z"/>
	<path class="st1" d="M614.01,857.23c-0.45-3.2,1.27-3.93,4-3.51C618.24,856.67,616.91,857.84,614.01,857.23z"/>
	<path class="st1" d="M459.98,857.53c2.64-0.35,4.35,0.34,3.91,3.46C460.9,861.74,459.89,860.25,459.98,857.53z"/>
	<path class="st1" d="M606.29,860.89c-0.41-3.03,1.29-3.68,3.83-3.39C610.12,860.07,609.3,861.71,606.29,860.89z"/>
	<path class="st1" d="M471.47,861.4c2.67-0.39,4.4,0.3,3.96,3.46C472.5,865.54,471.37,864.17,471.47,861.4z"/>
	<path class="st1" d="M594.76,864.83c-0.44-3.14,1.3-3.81,3.94-3.45C598.78,864.13,597.72,865.57,594.76,864.83z"/>
	<path class="st1" d="M486.97,865.19c0,1.15,0.01,2.29,0.01,3.44c-3,0.82-3.99-0.69-3.96-3.4
		C484.34,865.22,485.66,865.21,486.97,865.19z"/>
	<path class="st1" d="M494.59,361.33c0.44,2.73-0.26,4.48-3.49,4.03C490.49,362.49,491.61,361.1,494.59,361.33z"/>
	<path class="st3" d="M494.71,868.96c-0.03-1.23-0.06-2.47-0.09-3.7c3.02-0.57,4.48,0.51,3.97,3.71
		C497.29,868.97,496,868.97,494.71,868.96z"/>
	<path class="st3" d="M571.8,865.37c-0.02,1.25-0.05,2.49-0.07,3.74c-1.3,0-2.59-0.01-3.89-0.01
		C567.36,865.94,568.65,864.67,571.8,865.37z"/>
	<path class="st1" d="M583.2,868.58c-0.41-3.09,1.34-3.68,3.88-3.37C587.07,867.8,586.17,869.39,583.2,868.58z"/>
	<path class="st1" d="M559.85,365.36c-3.17,0.45-3.94-1.24-3.52-3.97C559.24,361.17,560.48,362.44,559.85,365.36z"/>
	<path class="st5" d="M506.27,872.75c-0.07-1.2-0.15-2.4-0.22-3.6c2.92-0.58,4.47,0.38,4.06,3.57
		C508.84,872.73,507.55,872.74,506.27,872.75z"/>
	<path class="st5" d="M556.23,872.76c-0.4-3.05,1.03-4.14,3.93-3.67c-0.02,1.22-0.05,2.44-0.07,3.65
		C558.8,872.74,557.52,872.75,556.23,872.76z"/>
	<path class="st3" d="M560.09,872.74c0.02-1.22,0.05-2.44,0.07-3.65c1.28,0.01,2.56,0.01,3.84,0.01c-0.03,1.2-0.06,2.39-0.09,3.59
		C562.63,872.7,561.36,872.72,560.09,872.74z"/>
	<path class="st2" d="M563.91,872.69c0.03-1.2,0.06-2.39,0.09-3.59c1.33,0.04,2.66,0.07,3.98,0.11
		C568.94,873.07,566.55,873.02,563.91,872.69z"/>
	<path class="st1" d="M571.34,392.28c-3.14,0.44-3.86-1.26-3.48-3.93C570.6,388.26,572.03,389.34,571.34,392.28z"/>
	<path class="st1" d="M521.61,315.68c0.45,3.08-1.17,3.89-3.87,3.53C517.55,316.41,518.56,314.93,521.61,315.68z"/>
	<path class="st3" d="M394.6,776.86c0.43-4.2-3.67-5.36-5.77-7.53c-1.37-1.42-1.66-2.61-2.07-4.11c0.58-3.03-0.79-4.15-3.69-3.77
		c-0.29-1.41,0.68-3.52-1.67-3.82c-2.68-0.35-1.91-2.43-2.34-3.94c0.59-3.03-0.78-4.15-3.69-3.77c-0.29-1.41,0.68-3.52-1.67-3.83
		c-2.68-0.35-1.92-2.43-2.34-3.94c0.59-3.03-0.79-4.15-3.69-3.77c-0.19-1.62,0.54-3.72-2.17-4.01c-0.88-0.09-1.57-0.66-1.5-1.55
		c0.4-5.37-3.43-7.76-7.09-10.34c-1.03-0.73-0.66-2.05-0.75-3.13c-0.16-1.83,0.03-3.32-2.45-4.43c-2.94-1.33-1.01-4.83-1.44-7.34
		c5.29,0.02,10.58-0.08,15.86,0.12c2.87,0.11,5.98-1.14,8.04,3c0.97,1.94,5.1,0.39,7.76,0.77c2.67,0.38,6.26-1.6,7.39,3.05
		c0.28,1.14,2.34,0.46,3.55,0.73c4.2,0.96,9.67-2.57,12.52,3.52c0.2,0.43,1.81,0.25,2.77,0.26c3.68,0.06,7.37,0.06,11.05,0.12
		c1.86,0.03,4.02-0.45,4.37,2.42c0.05,0.39,0.66,1.08,0.82,1.03c6.84-2.13,11.53,5.29,18.13,4.05c0,0,0.23,0.24,0.23,0.23
		c-0.03,2.72-0.08,5.44-0.06,8.16c0.01,1.24-0.25,2.84,1.44,3.14c2.86,0.5,2.32,2.6,2.34,4.43c0.04,7.36,0.01,14.73,0.1,22.09
		c0.02,1.47-0.78,3.63,1.33,4.13c2.74,0.64,2.44,2.5,2.44,4.4c0.01,3.84,0,7.68,0.06,11.52c0.02,1.21-0.43,2.94,1.21,3.27
		c3.38,0.67,2.42,3.19,2.58,5.27c0.24,3.17-1.37,8.03,0.63,9.19c4.46,2.61,3.12,6.12,3.17,9.42c0.05,2.99,1.5,3.52,3.9,3.32
		c0.05,2.52,0.09,5.05,0.14,7.57c0.91,2.75-3.01,7.83,3.75,7.76c0.29,1.39-0.65,3.45,1.66,3.8c2.65,0.4,1.9,2.38,2.14,3.94
		c1.04,2.68-2.79,7.82,3.87,7.67c-0.41,4.09,3.62,5.23,5.64,7.37c1.31,1.39,1.97,2.4,2.15,4.07c-0.12,0.12-0.24,0.24-0.36,0.36
		c-1.2-0.02-2.4-0.04-3.59-0.05c-1.52-0.45-3.75,0.32-3.97-2.36c-0.07-0.87-0.63-1.57-1.53-1.5c-5.33,0.38-7.74-3.35-10.26-7.05
		c-0.84-1.23-2.34-0.65-3.56-0.82c0.39-2.9-0.75-4.26-3.77-3.71c-3.99,0.17-5.13-3.71-7.45-5.67c-3.68-3.12-7.3-6.54-10.47-10.15
		c-2.96-3.37-6.45-6.17-9.27-9.68c-2.77-3.45-6.78-5.9-9.52-9.36c-3.1-3.91-8.34-6.02-9.62-11.42c0.55-3.01-0.81-4.15-3.72-3.76
		c0.48-4.23-3.7-5.32-5.78-7.51c-1.34-1.41-1.66-2.6-2.08-4.11C398.88,777.56,397.53,776.43,394.6,776.86z"/>
	<path class="st1" d="M610.03,557.62c0.49,3-0.81,4.19-3.76,3.71C605.93,558.49,607.12,557.19,610.03,557.62z"/>
	<path class="st1" d="M606.18,561.42c0.5,2.98-0.76,4.23-3.74,3.77C602.05,562.32,603.31,561.07,606.18,561.42z"/>
	<path class="st1" d="M479.31,580.55c-2.95,0.47-4.27-0.69-3.74-3.72C478.48,576.41,479.65,577.73,479.31,580.55z"/>
	<path class="st1" d="M483.15,584.42c-2.98,0.46-4.24-0.79-3.74-3.77C482.28,580.29,483.53,581.55,483.15,584.42z"/>
	<path class="st1" d="M579.21,592.22c0.55,3.02-0.79,4.17-3.72,3.73C575.14,593.12,576.3,591.8,579.21,592.22z"/>
	<path class="st1" d="M502.39,607.49c-2.93,0.44-4.26-0.72-3.72-3.73C501.59,603.33,502.75,604.65,502.39,607.49z"/>
	<path class="st1" d="M559.97,615.29c0.55,3.02-0.79,4.17-3.72,3.73C555.89,616.18,557.05,614.86,559.97,615.29z"/>
	<path class="st1" d="M544.57,634.51c0.56,3.02-0.8,4.15-3.71,3.76C540.49,635.43,541.63,634.08,544.57,634.51z"/>
	<path class="st5" d="M463.88,815.21c-2.41,0.2-3.86-0.33-3.9-3.32c-0.05-3.3,1.29-6.82-3.17-9.42c-1.99-1.16-0.39-6.02-0.63-9.19
		c-0.15-2.08,0.8-4.6-2.58-5.27c-1.65-0.32-1.19-2.06-1.21-3.27c-0.07-3.84-0.05-7.68-0.06-11.52c-0.01-1.9,0.29-3.76-2.44-4.4
		c-2.11-0.49-1.32-2.66-1.33-4.13c-0.09-7.36-0.05-14.72-0.1-22.09c-0.01-1.84,0.52-3.94-2.34-4.43c-1.69-0.29-1.43-1.89-1.44-3.14
		c-0.01-2.72,0.04-5.44,0.06-8.16c3.01,0.32,6.35-1.5,8.47,3.02c0.93,1.98,5.09,0.44,7.76,0.75c2.74,0.32,5.55-0.99,7.57,3
		c1.14,2.26,5.67,0.56,8.66,0.84c3.71,0.35,6.89,0.07,5.99-5.1c-0.2-1.13,0.16-2.22,1.58-2.57c0.59-0.14,1.65-0.65,1.62-0.74
		c-1.4-5.04,5.02-7.09,4.47-11.78c-0.15-1.33,0.11-2.6,1.81-2.87c1.04-0.16,2.01-0.67,1.88-1.79c-0.63-5.38,3.41-7.53,6.85-10.09
		c0.93-0.69,0.88-1.62,0.93-2.55c0.11-2.15-0.56-4.68,2.79-5.14c0.4-0.05,1.01-0.98,0.96-1.44c-0.63-5.38,3.46-7.48,6.83-10.13
		c0.44-0.35,0.94-1.06,0.88-1.55c-0.64-5.18,3.22-7.31,6.52-9.84c0.46-0.36,1.14-0.93,1.11-1.36c-0.42-5.44,3.39-7.88,7.16-10.43
		c1.03-0.7,0.64-2.05,0.74-3.15c0.31-3.61,2.76-5.46,5.95-3.84c2.12,1.07,5.06,3.27,5.15,5.09c0.26,5.36,3.41,7.99,7.29,10.48
		c0.44,0.28,0.81,1.1,0.75,1.63c-0.54,5.15,3.43,7.16,6.63,9.74c0.45,0.36,1.06,1,1.01,1.44c-0.61,5.34,3.44,7.53,6.82,10.12
		c1.12,0.86,0.93,1.93,1,3c0.12,2.03-0.37,4.34,2.73,4.7c0.4,0.05,1.05,0.96,1,1.41c-0.62,5.35,3.44,7.53,6.83,10.11
		c1.12,0.86,0.93,1.93,0.99,3.01c0.11,2.03-0.39,4.29,2.71,4.7c1.15,0.15,1.09,1.43,1.12,2.37c0.07,2.35-0.44,4.89,3.06,5.46
		c0.94,0.16,0.79,1.61,0.82,2.56c0.06,2.2-0.06,3.92,2.79,5.24c2.32,1.08,0.78,4.66,1.09,7.12c-0.95,0.11-2.61-0.03-2.74,0.36
		c-1.69,4.86-5.74,3.27-9.12,3.54c-0.93,0.07-2.55,0.1-2.68,0.5c-1.52,4.97-6,2.13-8.65,3.51c-3.84,2.01-8.52,2.67-11.48,6.1
		c-1.04,1.21-2.02,1.33-3.26,1.37c-2.04,0.07-4.34-0.41-4.72,2.69c-0.05,0.41-0.91,1.01-1.4,1.02c-5.29,0.07-12.2,2.07-15.41-0.51
		c-3.34-2.69-9.06-1.16-10.53-6.38c-0.29-1.02-2.04-0.49-3.12-0.64c-1.08-0.15-2.99-0.14-3.11-0.59c-1.24-4.62-4.91-3.01-7.82-3.23
		c-2.03-0.15-3.96,0.31-4.85-2.59c-0.71-2.32-3.36-0.97-5.13-1.26c-2.43-0.4-5.36,1.14-6.6-2.9c-0.58-1.89-3.46-0.89-5.3-0.82
		c-2.11,0.08-1.82,1.89-1.81,3.27c0.01,2.16,0.08,4.12-2.85,4.64c-1.31,0.23-0.96,1.83-1.01,2.91c-0.09,2.04,0.39,4.19-2.68,4.74
		c-1.62,0.29-0.99,2.09-1.17,3.29c-0.47,3.12,1.72,7.2-3.3,8.78c-0.51,0.16-0.31,2.36-0.57,3.58c-0.85,4.07,2.48,9.33-3.49,12.07
		c-0.56,0.26-0.32,2.4-0.33,3.67C463.91,795.35,463.9,805.28,463.88,815.21z"/>
	<path class="st5" d="M602.42,830.55c0-16.27,0.02-32.54-0.03-48.81c-0.01-2.07,0.82-4.58-2.55-5.24c-1.64-0.32-1.21-2.04-1.23-3.25
		c-0.07-2.71-0.01-5.42-0.06-8.13c-0.02-0.94,0.03-2.57-0.37-2.71c-5.19-1.82-3.06-6.17-3.45-9.61c-0.15-1.31-0.08-2.65-1.79-2.89
		c-1.95-0.28-2.08-1.67-2.04-3.18c0.05-2.26,0.21-4.37-2.95-4.99c-1.35-0.27-0.8-2.2-0.89-3.43c0.95-0.1,2.6,0.05,2.75-0.34
		c1.87-5.04,6.14-3.15,9.61-3.51c0.64-0.07,1.7,0.05,1.84-0.24c2.77-6.09,8.2-2.86,12.46-3.55c1.87-0.3,3.14-0.3,4.49-2.42
		c2.09-3.25,6.16-1.33,9.31-1.28c2.89,0.05,1.78,2.91,1.83,4.61c0.14,4.48,0.05,8.96,0.02,13.45c-0.01,2.16,0.59,4.47-2.69,5.21
		c-1.73,0.39-1.07,2.45-1.08,3.8c-0.07,7.52-0.05,15.05-0.09,22.57c-0.01,1.69,0.45,3.65-2.16,4.07c-1.72,0.28-1.61,1.74-1.63,3.02
		c-0.03,2.72-0.02,5.44-0.06,8.16c-0.01,0.96,0.17,2.59-0.24,2.76c-5.19,2.22-3.26,6.78-3.63,10.56c-0.1,1.01-0.29,2.03-1.44,2.18
		c-2.16,0.29-2.39,1.71-2.37,3.45c0.02,2.04,0.41,4.28-2.68,4.69c-1.14,0.15-1.09,1.43-1.12,2.37c-0.07,2.34,0.47,4.79-3.01,5.5
		c-1.3,0.27-0.94,2.26-0.84,3.47C606.59,829.84,605.31,830.99,602.42,830.55z"/>
	<path class="st5" d="M598.56,838.23c0.01-1.54,0.12-3.09,0-4.62c-0.23-3.01,1.66-3.19,3.85-3.06
		C601.4,833.25,605.31,838.41,598.56,838.23z"/>
	<path class="st1" d="M702.52,734.54c0.37,2.81-0.73,4.19-3.67,3.77C698.23,735.25,699.63,734.17,702.52,734.54z"/>
	<path class="st1" d="M679.43,769.14c0.38,2.84-0.77,4.19-3.71,3.76C675.17,769.89,676.53,768.76,679.43,769.14z"/>
	<path class="st1" d="M667.89,784.55c0.36,2.84-0.8,4.16-3.72,3.74C663.63,785.26,664.97,784.11,667.89,784.55z"/>
	<path class="st1" d="M644.78,811.47c0.41,2.86-0.8,4.13-3.69,3.72C640.55,812.21,641.83,811.01,644.78,811.47z"/>
	<path class="st1" d="M625.54,830.72c0.43,2.91-0.9,4.06-3.72,3.73C621.35,831.51,622.5,830.19,625.54,830.72z"/>
	<path class="st1" d="M621.72,834.55c0.35,2.87-0.9,4.12-3.78,3.74C617.49,835.31,618.73,834.05,621.72,834.55z"/>
	<path class="st5" d="M583.16,857.45c-0.37-2.95,0.91-4.23,3.86-3.82C587.5,856.68,586.17,857.91,583.16,857.45z"/>
	<path class="st5" d="M583.13,861.2c-1.26,0.05-2.52,0.09-3.78,0.14c-0.48-3,0.83-4.26,3.8-3.88
		C583.15,858.7,583.14,859.95,583.13,861.2z"/>
	<path class="st5" d="M475.45,845.95c-6.66,0.15-2.83-4.99-3.87-7.67C478.21,838.15,474.39,843.28,475.45,845.95z"/>
	<path class="st5" d="M467.77,830.55c-6.76,0.07-2.84-5.01-3.75-7.76C470.41,822.9,466.84,827.81,467.77,830.55z"/>
	<path class="st3" d="M487.02,861.3c-1.32,0.02-2.65,0.03-3.97,0.05c-0.06-1.2-0.12-2.4-0.17-3.59c0.12-0.12,0.24-0.24,0.36-0.36
		C486.17,857.07,487.44,858.37,487.02,861.3z"/>
	<path class="st3" d="M491.03,864.96c-1.28,0.01-2.56,0.02-3.84,0.02c-0.05-1.23-0.11-2.45-0.16-3.68
		C489.96,860.77,491.4,861.88,491.03,864.96z"/>
	<path class="st3" d="M579.44,861.44c0.45,3.19-1.05,4.23-4.03,3.65C575.04,861.98,576.46,860.85,579.44,861.44z"/>
	<path class="st1" d="M367.66,738.39c2.9-0.38,4.28,0.73,3.69,3.77C368.41,742.57,367.29,741.21,367.66,738.39z"/>
	<path class="st1" d="M375.36,749.92c2.9-0.38,4.28,0.73,3.69,3.77C376.11,754.1,374.99,752.74,375.36,749.92z"/>
	<path class="st1" d="M394.6,776.86c2.93-0.43,4.28,0.7,3.7,3.74C395.38,781.01,394.24,779.67,394.6,776.86z"/>
	<path class="st1" d="M406.15,792.21c2.91-0.39,4.26,0.75,3.72,3.76C406.93,796.4,405.78,795.06,406.15,792.21z"/>
	<path class="st1" d="M456.2,842.26c3.02-0.55,4.15,0.81,3.77,3.71C457.12,846.34,455.77,845.2,456.2,842.26z"/>
	<path class="st1" d="M482.88,857.75c0.06,1.2,0.12,2.4,0.17,3.59c-2.78,0.35-4.18-0.72-3.77-3.65
		C480.48,857.72,481.68,857.74,482.88,857.75z"/>
	<path class="st1" d="M383.06,761.45c2.9-0.38,4.28,0.74,3.69,3.77C383.81,765.64,382.69,764.28,383.06,761.45z"/>
</g>
</svg>
